<svg id="visual" viewBox="0 0 900 600" width="900" height="600" xmlns="http://www.w3.org/2000/svg" xmlns:xlink="http://www.w3.org/1999/xlink" version="1.1"><path d="M0 121L13.7 119C27.3 117 54.7 113 82 110C109.3 107 136.7 105 163.8 94C191 83 218 63 245.2 63C272.3 63 299.7 83 327 90C354.3 97 381.7 91 409 92C436.3 93 463.7 101 491 95C518.3 89 545.7 69 573 64C600.3 59 627.7 69 654.8 77C682 85 709 91 736.2 95C763.3 99 790.7 101 818 98C845.3 95 872.7 87 886.3 83L900 79L900 0L886.3 0C872.7 0 845.3 0 818 0C790.7 0 763.3 0 736.2 0C709 0 682 0 654.8 0C627.7 0 600.3 0 573 0C545.7 0 518.3 0 491 0C463.7 0 436.3 0 409 0C381.7 0 354.3 0 327 0C299.7 0 272.3 0 245.2 0C218 0 191 0 163.8 0C136.7 0 109.3 0 82 0C54.7 0 27.3 0 13.7 0L0 0Z" fill="#6198ff"></path><path d="M0 391L13.7 375C27.3 359 54.7 327 82 301C109.3 275 136.7 255 163.8 231C191 207 218 179 245.2 175C272.3 171 299.7 191 327 201C354.3 211 381.7 211 409 222C436.3 233 463.7 255 491 253C518.3 251 545.7 225 573 226C600.3 227 627.7 255 654.8 288C682 321 709 359 736.2 358C763.3 357 790.7 317 818 295C845.3 273 872.7 269 886.3 267L900 265L900 77L886.3 81C872.7 85 845.3 93 818 96C790.7 99 763.3 97 736.2 93C709 89 682 83 654.8 75C627.7 67 600.3 57 573 62C545.7 67 518.3 87 491 93C463.7 99 436.3 91 409 90C381.7 89 354.3 95 327 88C299.7 81 272.3 61 245.2 61C218 61 191 81 163.8 92C136.7 103 109.3 105 82 108C54.7 111 27.3 115 13.7 117L0 119Z" fill="#3c80ff"></path><path d="M0 433L13.7 416C27.3 399 54.7 365 82 342C109.3 319 136.7 307 163.8 292C191 277 218 259 245.2 260C272.3 261 299.7 281 327 285C354.3 289 381.7 277 409 289C436.3 301 463.7 337 491 337C518.3 337 545.7 301 573 292C600.3 283 627.7 301 654.8 330C682 359 709 399 736.2 408C763.3 417 790.7 395 818 378C845.3 361 872.7 349 886.3 343L900 337L900 263L886.3 265C872.7 267 845.3 271 818 293C790.7 315 763.3 355 736.2 356C709 357 682 319 654.8 286C627.7 253 600.3 225 573 224C545.7 223 518.3 249 491 251C463.7 253 436.3 231 409 220C381.7 209 354.3 209 327 199C299.7 189 272.3 169 245.2 173C218 177 191 205 163.8 229C136.7 253 109.3 273 82 299C54.7 325 27.3 357 13.7 373L0 389Z" fill="#0066ff"></path><path d="M0 541L13.7 537C27.3 533 54.7 525 82 526C109.3 527 136.7 537 163.8 527C191 517 218 487 245.2 478C272.3 469 299.7 481 327 481C354.3 481 381.7 469 409 467C436.3 465 463.7 473 491 479C518.3 485 545.7 489 573 492C600.3 495 627.7 497 654.8 505C682 513 709 527 736.2 532C763.3 537 790.7 533 818 520C845.3 507 872.7 485 886.3 474L900 463L900 335L886.3 341C872.7 347 845.3 359 818 376C790.7 393 763.3 415 736.2 406C709 397 682 357 654.8 328C627.7 299 600.3 281 573 290C545.7 299 518.3 335 491 335C463.7 335 436.3 299 409 287C381.7 275 354.3 287 327 283C299.7 279 272.3 259 245.2 258C218 257 191 275 163.8 290C136.7 305 109.3 317 82 340C54.7 363 27.3 397 13.7 414L0 431Z" fill="#0059dd"></path><path d="M0 601L13.7 601C27.3 601 54.7 601 82 601C109.3 601 136.7 601 163.8 601C191 601 218 601 245.2 601C272.3 601 299.7 601 327 601C354.3 601 381.7 601 409 601C436.3 601 463.7 601 491 601C518.3 601 545.7 601 573 601C600.3 601 627.7 601 654.8 601C682 601 709 601 736.2 601C763.3 601 790.7 601 818 601C845.3 601 872.7 601 886.3 601L900 601L900 461L886.3 472C872.7 483 845.3 505 818 518C790.7 531 763.3 535 736.2 530C709 525 682 511 654.8 503C627.7 495 600.3 493 573 490C545.7 487 518.3 483 491 477C463.7 471 436.3 463 409 465C381.7 467 354.3 479 327 479C299.7 479 272.3 467 245.2 476C218 485 191 515 163.8 525C136.7 535 109.3 525 82 524C54.7 523 27.3 531 13.7 535L0 539Z" fill="#004cbb"></path></svg>