<svg id="visual" viewBox="0 0 900 600" width="900" height="600" xmlns="http://www.w3.org/2000/svg" xmlns:xlink="http://www.w3.org/1999/xlink" version="1.1"><path d="M0 145L82 145L82 235L164 235L164 223L245 223L245 217L327 217L327 271L409 271L409 151L491 151L491 139L573 139L573 217L655 217L655 217L736 217L736 109L818 109L818 181L900 181L900 253L900 0L900 0L818 0L818 0L736 0L736 0L655 0L655 0L573 0L573 0L491 0L491 0L409 0L409 0L327 0L327 0L245 0L245 0L164 0L164 0L82 0L82 0L0 0Z" fill="#78c0e0"></path><path d="M0 391L82 391L82 391L164 391L164 349L245 349L245 337L327 337L327 421L409 421L409 307L491 307L491 331L573 331L573 397L655 397L655 331L736 331L736 343L818 343L818 349L900 349L900 379L900 251L900 179L818 179L818 107L736 107L736 215L655 215L655 215L573 215L573 137L491 137L491 149L409 149L409 269L327 269L327 215L245 215L245 221L164 221L164 233L82 233L82 143L0 143Z" fill="#3a96d0"></path><path d="M0 469L82 469L82 439L164 439L164 457L245 457L245 427L327 427L327 475L409 475L409 355L491 355L491 373L573 373L573 463L655 463L655 409L736 409L736 397L818 397L818 445L900 445L900 433L900 377L900 347L818 347L818 341L736 341L736 329L655 329L655 395L573 395L573 329L491 329L491 305L409 305L409 419L327 419L327 335L245 335L245 347L164 347L164 389L82 389L82 389L0 389Z" fill="#006bbb"></path><path d="M0 517L82 517L82 535L164 535L164 529L245 529L245 499L327 499L327 547L409 547L409 451L491 451L491 451L573 451L573 535L655 535L655 469L736 469L736 451L818 451L818 541L900 541L900 487L900 431L900 443L818 443L818 395L736 395L736 407L655 407L655 461L573 461L573 371L491 371L491 353L409 353L409 473L327 473L327 425L245 425L245 455L164 455L164 437L82 437L82 467L0 467Z" fill="#003e9e"></path><path d="M0 601L82 601L82 601L164 601L164 601L245 601L245 601L327 601L327 601L409 601L409 601L491 601L491 601L573 601L573 601L655 601L655 601L736 601L736 601L818 601L818 601L900 601L900 601L900 485L900 539L818 539L818 449L736 449L736 467L655 467L655 533L573 533L573 449L491 449L491 449L409 449L409 545L327 545L327 497L245 497L245 527L164 527L164 533L82 533L82 515L0 515Z" fill="#150578"></path></svg>