<svg id="visual" viewBox="0 0 900 600" width="900" height="600" xmlns="http://www.w3.org/2000/svg" xmlns:xlink="http://www.w3.org/1999/xlink" version="1.1"><rect x="0" y="0" width="900" height="600" fill="#78C0E0"></rect><defs><linearGradient id="grad1_0" x1="33.3%" y1="0%" x2="100%" y2="100%"><stop offset="20%" stop-color="#78c0e0" stop-opacity="1"></stop><stop offset="80%" stop-color="#78c0e0" stop-opacity="1"></stop></linearGradient></defs><defs><linearGradient id="grad2_0" x1="0%" y1="0%" x2="66.7%" y2="100%"><stop offset="20%" stop-color="#78c0e0" stop-opacity="1"></stop><stop offset="80%" stop-color="#78c0e0" stop-opacity="1"></stop></linearGradient></defs><g transform="translate(900, 0)"><path d="M0 486.7C-66.2 481.9 -132.3 477 -186.3 449.7C-240.2 422.4 -282 372.6 -326.7 326.7C-371.4 280.7 -419.1 238.6 -446.2 184.8C-473.4 131 -480.1 65.5 -486.7 0L0 0Z" fill="#449DD1"></path></g><g transform="translate(0, 600)"><path d="M0 -486.7C56.4 -462.6 112.9 -438.4 173.4 -418.5C233.8 -398.7 298.3 -383.2 344.2 -344.2C390 -305.2 417.3 -242.7 437.9 -181.4C458.6 -120.1 472.7 -60.1 486.7 0L0 0Z" fill="#449DD1"></path></g></svg>